<svg viewBox="0 0 32 32" xmlns="http://www.w3.org/2000/svg">
  <defs>
    <linearGradient id="bg" x1="0%" y1="0%" x2="100%" y2="100%">
      <stop offset="0%" style="stop-color:#ef4444;stop-opacity:1" />
      <stop offset="100%" style="stop-color:#dc2626;stop-opacity:1" />
    </linearGradient>
  </defs>
  
  <!-- Background Circle -->
  <circle cx="16" cy="16" r="16" fill="url(#bg)" />
  
  <!-- Fork -->
  <path d="M8 6v6c0 1.1.9 2 2 2s2-.9 2-2V6h1v6c0 1.7-1.3 3-3 3s-3-1.3-3-3V6h1z" fill="white" />
  <rect x="8.5" y="4" width="1" height="1.5" rx="0.5" fill="white" />
  <rect x="7.5" y="4" width="1" height="1.5" rx="0.5" fill="white" />
  <rect x="9.5" y="4" width="1" height="1.5" rx="0.5" fill="white" />
  
  <!-- Spoon -->
  <path d="M20 6c-1.7 0-3 1.3-3 3v1.5c0 .8.7 1.5 1.5 1.5V22c0 .8.7 1.5 1.5 1.5s1.5-.7 1.5-1.5V12c.8 0 1.5-.7 1.5-1.5V9c0-1.7-1.3-3-3-3z" fill="white" />
  
  <!-- Plate -->
  <ellipse cx="16" cy="26" rx="10" ry="3" fill="white" opacity="0.9" />
</svg>
